<svg xmlns="http://www.w3.org/2000/svg" version="1.1" xmlns:xlink="http://www.w3.org/1999/xlink" xmlns:svgjs="http://svgjs.dev/svgjs" width="1000" height="1125" viewBox="0 0 1000 1125"><g transform="matrix(1,0,0,1,1.7053025658242404e-13,0)"><svg viewBox="0 0 320 360" data-background-color="#ffffff" preserveAspectRatio="xMidYMid meet" height="1125" width="1000" xmlns="http://www.w3.org/2000/svg" xmlns:xlink="http://www.w3.org/1999/xlink"><g id="tight-bounds" transform="matrix(1,0,0,1,0,0)"><svg viewBox="0 0 320 360" height="360" width="320"><g><svg></svg></g><g><svg viewBox="0 0 320 360" height="360" width="320"><g><path d="M20.961 227.22l3.726 4.658-1.863-6.056c-0.466-2.795-3.726 0.466-1.863 1.398M25.153 224.425c1.397 2.329 2.795 4.658 2.795 6.987 0 3.261 2.795 4.658 5.123 5.589-3.261-3.726-5.124-13.974-7.918-12.576M204.017 26.929c7.918 0 15.371-0.932 23.756 0.931 20.495 5.124 37.729 15.371 49.374 29.811l32.606 52.169c1.397 13.042 4.192 27.482 3.726 43.319 3.261 0 2.795-4.658 6.521-5.59-3.726 9.316-5.59 20.961-6.521 34.469-2.329-7.453 0-18.632 0.466-24.687-3.261 5.124-5.124 1.397-5.124-0.932 0.466-3.726-1.397-3.261-2.795-4.658-5.124-4.658-8.384-9.782-12.11-17.7 2.329-6.055 2.795-14.905-4.658-19.563-2.329-1.397-5.124-3.726-6.521-7.453-1.863-5.124-5.124-11.179-4.193-19.097 0.466-2.329-6.987 5.124-11.179 1.863-18.166-12.576-36.332-27.016-58.224-39.127-11.645 0-20.029-4.192-24.221-9.316-3.726-4.658-0.932-10.713 4.658-11.179 3.261 0 6.987-0.932 9.782 0.932 0.466-1.863 2.329-4.192 4.657-4.192M157.904 16.215l0.932 0.466c4.658 0.932 6.987 7.453 12.11 5.124 0 3.261 0.466 6.521-0.466 8.85-1.397 3.726-5.59 3.726-8.85 3.726-31.208-1.863-49.374 11.179-68.471 22.358-5.124 3.261-10.713 5.59-14.906 9.782-20.029 18.632-41.921 35.866-47.045 70.335l-4.192 38.195c-0.466 4.192-5.124 8.384-4.192 13.508l3.26 22.824c-3.261-3.261-5.124 0.932-4.192 2.795 0.466 1.397 2.329 6.055 5.124 1.863 3.726 6.987 7.453 20.495 12.576 26.55 15.837 18.632 36.332 35.4 53.101 52.169 4.192-0.932 7.453-0.932 8.384-3.727 1.397 2.795-1.397 5.59-3.726 6.056 7.453 4.658 15.837 8.85 27.016 9.781 14.44 0.932 27.948 3.261 40.524 6.522 6.521-1.863 13.042-2.795 20.029-3.261 2.329 0 3.726-3.726 6.521-4.658l0.466-4.658c2.795 4.192 2.329-1.397 0.466-4.192 3.261 2.795 4.192 5.124 5.589 6.987 0-1.397 3.726-6.521 3.727-0.466l0.931-6.055c1.397-0.932 1.863 5.124 3.261 0.931 1.397-4.192 4.192-0.932 6.987-2.329-0.932 1.863-0.466 5.59 2.794 3.261l3.727-3.261c2.329 5.59 6.055 3.261 7.918 2.329 20.495-13.042 40.99-28.413 60.553-43.784l-0.466 6.055 2.329-7.453c2.329 2.329 4.192 0.466 5.124-0.931 2.795-4.658 6.521-9.316 12.577-13.508-7.453 20.029-16.303 35.866-27.482 48.908l-4.658 5.59c0 3.261-0.932 7.453-4.658 7.918-1.863 0.466-5.59-0.932-8.384 1.863-1.397 1.863 3.261 5.59-0.466 2.795-3.261-2.329-6.521 0-10.248 0.932-2.795 0.932 1.863 3.726 2.795 5.589 0.932 1.863 1.863 3.726 1.398 6.056l-5.124-5.59c-6.055 3.261-9.782 9.316-14.906 13.974-2.329 1.863-1.397 5.124-1.397 7.918-3.261 0-6.987-0.932-8.85 0.932-1.397 1.863-0.932 4.658-0.932 7.453-4.658-0.466-5.124-7.453-9.315-6.056-4.192 0.932-8.85 1.397-12.577 3.727 2.795 5.59-4.658 2.329-3.726 3.26-6.987-4.192-13.042-7.453-20.495-4.658-15.837-5.124-35.4-2.795-49.84-0.931 0-2.329 0.466-4.658-0.466-5.124-0.932 2.329-3.726 1.397-3.26 1.397-8.85-6.055-17.7-9.782-27.016-14.905-8.384 0.932-16.303-3.261-18.632-5.59-6.521-6.055-13.974-2.795-20.029-4.192-13.042-3.261-17.7-16.769-19.098-26.084-0.932-4.658-4.658-6.521-6.055-6.056-6.055-19.563-15.371-37.263-22.824-55.429-1.863-4.658-1.397-9.316-1.397-14.44 2.329 0.932 4.658 0.466 4.192-2.794-2.329-15.371-7.918-27.016-13.974-38.195 3.261-15.837 3.726-34.469 11.179-48.443 6.521-12.576 18.632-19.098 27.016-29.811 2.795-3.726 2.795-8.85 5.59-12.11 9.316-9.316 18.632-19.098 28.879-27.482 4.658-3.726 10.247 0 17.234-1.397 2.329-8.384 11.645-15.837 20.495-13.508 3.726 0.932 11.179-8.85 13.508-9.782 3.726-1.397 1.863 3.726 1.863 6.987 8.85-6.987 20.961-10.713 32.14-14.906" fill="#ff0033" fill-rule="nonzero" stroke="none" stroke-width="1" stroke-linecap="butt" stroke-linejoin="miter" stroke-miterlimit="10" stroke-dasharray="" stroke-dashoffset="0" font-family="none" font-weight="none" font-size="none" text-anchor="none" style="mix-blend-mode: normal" data-fill-palette-color="tertiary"></path></g><g transform="matrix(1,0,0,1,64,114.67719461216907)"><svg viewBox="0 0 192 130.64561077566185" height="130.64561077566185" width="192"><g><svg viewBox="0 0 192 130.64561077566185" height="130.64561077566185" width="192"><g><svg viewBox="0 0 192 130.64561077566185" height="130.64561077566185" width="192"><g><svg viewBox="0 0 192 130.64561077566185" height="130.64561077566185" width="192"><g id="textblocktransform"><svg viewBox="0 0 192 130.64561077566185" height="130.64561077566185" width="192" id="textblock"><g><svg viewBox="0 0 192 130.64561077566185" height="130.64561077566185" width="192"><g transform="matrix(1,0,0,1,0,0)"><svg width="192" viewBox="1.45 -36.23 53.82 36.629999999999995" height="130.64561077566185" data-palette-color="#ffffff"><path d="M23.88-32.52L22.7-30.23Q22.48-29.85 22.23-29.66 21.98-29.48 21.58-29.48L21.58-29.48Q21.15-29.48 20.59-29.9 20.03-30.33 19.16-30.84 18.3-31.35 17.09-31.78 15.88-32.2 14.15-32.2L14.15-32.2Q12.53-32.2 11.28-31.76 10.03-31.33 9.19-30.58 8.35-29.83 7.93-28.81 7.5-27.8 7.5-26.63L7.5-26.63Q7.5-25.13 8.24-24.14 8.97-23.15 10.19-22.45 11.4-21.75 12.94-21.24 14.48-20.73 16.09-20.18 17.7-19.63 19.24-18.94 20.78-18.25 21.99-17.2 23.2-16.15 23.94-14.63 24.68-13.1 24.68-10.88L24.68-10.88Q24.68-8.53 23.88-6.46 23.08-4.4 21.54-2.88 20-1.35 17.76-0.48 15.53 0.4 12.68 0.4L12.68 0.4Q9.2 0.4 6.34-0.86 3.48-2.13 1.45-4.28L1.45-4.28 2.85-6.58Q3.05-6.85 3.34-7.04 3.63-7.23 3.98-7.23L3.98-7.23Q4.5-7.23 5.18-6.66 5.85-6.1 6.86-5.43 7.88-4.75 9.31-4.19 10.75-3.63 12.83-3.63L12.83-3.63Q14.55-3.63 15.9-4.1 17.25-4.58 18.19-5.44 19.13-6.3 19.63-7.5 20.13-8.7 20.13-10.18L20.13-10.18Q20.13-11.8 19.39-12.84 18.65-13.88 17.45-14.58 16.25-15.28 14.71-15.76 13.18-16.25 11.56-16.76 9.95-17.28 8.41-17.95 6.88-18.63 5.68-19.7 4.48-20.78 3.74-22.39 3-24 3-26.38L3-26.38Q3-28.28 3.74-30.05 4.48-31.83 5.88-33.2 7.28-34.58 9.34-35.4 11.4-36.23 14.08-36.23L14.08-36.23Q17.07-36.23 19.55-35.27 22.03-34.33 23.88-32.52L23.88-32.52ZM41.92-13.4L36.17-13.4 36.17 0 31.35 0 31.35-35.83 41.92-35.83Q45.32-35.83 47.84-35.04 50.35-34.25 52-32.8 53.65-31.35 54.46-29.3 55.27-27.25 55.27-24.73L55.27-24.73Q55.27-22.23 54.4-20.15 53.52-18.07 51.84-16.57 50.15-15.08 47.65-14.24 45.15-13.4 41.92-13.4L41.92-13.4ZM36.17-32L36.17-17.25 41.92-17.25Q44-17.25 45.59-17.8 47.17-18.35 48.25-19.34 49.32-20.33 49.87-21.7 50.42-23.08 50.42-24.73L50.42-24.73Q50.42-28.15 48.31-30.08 46.2-32 41.92-32L41.92-32 36.17-32Z" opacity="1" transform="matrix(1,0,0,1,0,0)" fill="#ffffff" class="undefined-text-0" data-fill-palette-color="primary" id="text-0"></path></svg></g></svg></g></svg></g></svg></g><g></g></svg></g></svg></g></svg></g></svg></g><defs></defs></svg><rect width="320" height="360" fill="none" stroke="none" visibility="hidden"></rect></g></svg></g></svg>