<svg xmlns="http://www.w3.org/2000/svg" version="1.1" xmlns:xlink="http://www.w3.org/1999/xlink" xmlns:svgjs="http://svgjs.dev/svgjs" width="1000" height="1125" viewBox="0 0 1000 1125"><g transform="matrix(1,0,0,1,1.7053025658242404e-13,0)"><svg viewBox="0 0 320 360" data-background-color="#ffffff" preserveAspectRatio="xMidYMid meet" height="1125" width="1000" xmlns="http://www.w3.org/2000/svg" xmlns:xlink="http://www.w3.org/1999/xlink"><g id="tight-bounds" transform="matrix(1,0,0,1,0,0)"><svg viewBox="0 0 320 360" height="360" width="320"><g><svg></svg></g><g><svg viewBox="0 0 320 360" height="360" width="320"><g><path d="M20.961 227.22l3.726 4.658-1.863-6.056c-0.466-2.795-3.726 0.466-1.863 1.398M25.153 224.425c1.397 2.329 2.795 4.658 2.795 6.987 0 3.261 2.795 4.658 5.123 5.589-3.261-3.726-5.124-13.974-7.918-12.576M204.017 26.929c7.918 0 15.371-0.932 23.756 0.931 20.495 5.124 37.729 15.371 49.374 29.811l32.606 52.169c1.397 13.042 4.192 27.482 3.726 43.319 3.261 0 2.795-4.658 6.521-5.59-3.726 9.316-5.59 20.961-6.521 34.469-2.329-7.453 0-18.632 0.466-24.687-3.261 5.124-5.124 1.397-5.124-0.932 0.466-3.726-1.397-3.261-2.795-4.658-5.124-4.658-8.384-9.782-12.11-17.7 2.329-6.055 2.795-14.905-4.658-19.563-2.329-1.397-5.124-3.726-6.521-7.453-1.863-5.124-5.124-11.179-4.193-19.097 0.466-2.329-6.987 5.124-11.179 1.863-18.166-12.576-36.332-27.016-58.224-39.127-11.645 0-20.029-4.192-24.221-9.316-3.726-4.658-0.932-10.713 4.658-11.179 3.261 0 6.987-0.932 9.782 0.932 0.466-1.863 2.329-4.192 4.657-4.192M157.904 16.215l0.932 0.466c4.658 0.932 6.987 7.453 12.11 5.124 0 3.261 0.466 6.521-0.466 8.85-1.397 3.726-5.59 3.726-8.85 3.726-31.208-1.863-49.374 11.179-68.471 22.358-5.124 3.261-10.713 5.59-14.906 9.782-20.029 18.632-41.921 35.866-47.045 70.335l-4.192 38.195c-0.466 4.192-5.124 8.384-4.192 13.508l3.26 22.824c-3.261-3.261-5.124 0.932-4.192 2.795 0.466 1.397 2.329 6.055 5.124 1.863 3.726 6.987 7.453 20.495 12.576 26.55 15.837 18.632 36.332 35.4 53.101 52.169 4.192-0.932 7.453-0.932 8.384-3.727 1.397 2.795-1.397 5.59-3.726 6.056 7.453 4.658 15.837 8.85 27.016 9.781 14.44 0.932 27.948 3.261 40.524 6.522 6.521-1.863 13.042-2.795 20.029-3.261 2.329 0 3.726-3.726 6.521-4.658l0.466-4.658c2.795 4.192 2.329-1.397 0.466-4.192 3.261 2.795 4.192 5.124 5.589 6.987 0-1.397 3.726-6.521 3.727-0.466l0.931-6.055c1.397-0.932 1.863 5.124 3.261 0.931 1.397-4.192 4.192-0.932 6.987-2.329-0.932 1.863-0.466 5.59 2.794 3.261l3.727-3.261c2.329 5.59 6.055 3.261 7.918 2.329 20.495-13.042 40.99-28.413 60.553-43.784l-0.466 6.055 2.329-7.453c2.329 2.329 4.192 0.466 5.124-0.931 2.795-4.658 6.521-9.316 12.577-13.508-7.453 20.029-16.303 35.866-27.482 48.908l-4.658 5.59c0 3.261-0.932 7.453-4.658 7.918-1.863 0.466-5.59-0.932-8.384 1.863-1.397 1.863 3.261 5.59-0.466 2.795-3.261-2.329-6.521 0-10.248 0.932-2.795 0.932 1.863 3.726 2.795 5.589 0.932 1.863 1.863 3.726 1.398 6.056l-5.124-5.59c-6.055 3.261-9.782 9.316-14.906 13.974-2.329 1.863-1.397 5.124-1.397 7.918-3.261 0-6.987-0.932-8.85 0.932-1.397 1.863-0.932 4.658-0.932 7.453-4.658-0.466-5.124-7.453-9.315-6.056-4.192 0.932-8.85 1.397-12.577 3.727 2.795 5.59-4.658 2.329-3.726 3.26-6.987-4.192-13.042-7.453-20.495-4.658-15.837-5.124-35.4-2.795-49.84-0.931 0-2.329 0.466-4.658-0.466-5.124-0.932 2.329-3.726 1.397-3.26 1.397-8.85-6.055-17.7-9.782-27.016-14.905-8.384 0.932-16.303-3.261-18.632-5.59-6.521-6.055-13.974-2.795-20.029-4.192-13.042-3.261-17.7-16.769-19.098-26.084-0.932-4.658-4.658-6.521-6.055-6.056-6.055-19.563-15.371-37.263-22.824-55.429-1.863-4.658-1.397-9.316-1.397-14.44 2.329 0.932 4.658 0.466 4.192-2.794-2.329-15.371-7.918-27.016-13.974-38.195 3.261-15.837 3.726-34.469 11.179-48.443 6.521-12.576 18.632-19.098 27.016-29.811 2.795-3.726 2.795-8.85 5.59-12.11 9.316-9.316 18.632-19.098 28.879-27.482 4.658-3.726 10.247 0 17.234-1.397 2.329-8.384 11.645-15.837 20.495-13.508 3.726 0.932 11.179-8.85 13.508-9.782 3.726-1.397 1.863 3.726 1.863 6.987 8.85-6.987 20.961-10.713 32.14-14.906" fill="#ff0033" fill-rule="nonzero" stroke="none" stroke-width="1" stroke-linecap="butt" stroke-linejoin="miter" stroke-miterlimit="10" stroke-dasharray="" stroke-dashoffset="0" font-family="none" font-weight="none" font-size="none" text-anchor="none" style="mix-blend-mode: normal" data-fill-palette-color="tertiary"></path></g><g transform="matrix(1,0,0,1,64,151.87547974413647)"><svg viewBox="0 0 192 56.24904051172708" height="56.24904051172708" width="192"><g><svg viewBox="0 0 192 56.24904051172708" height="56.24904051172708" width="192"><g><svg viewBox="0 0 192 56.24904051172708" height="56.24904051172708" width="192"><g><svg viewBox="0 0 192 56.24904051172708" height="56.24904051172708" width="192"><g id="textblocktransform"><svg viewBox="0 0 192 56.24904051172708" height="56.24904051172708" width="192" id="textblock"><g><svg viewBox="0 0 192 56.24904051172708" height="56.24904051172708" width="192"><g transform="matrix(1,0,0,1,0,0)"><svg width="192" viewBox="1.55 -25.78 117.24000000000001 34.36" height="56.24904051172708" data-palette-color="#ffffff"><path d="M19.15-22.78L18.15-21.15Q17.85-20.6 17.23-20.6L17.23-20.6Q16.85-20.6 16.38-20.88 15.9-21.15 15.21-21.49 14.53-21.83 13.58-22.11 12.63-22.4 11.33-22.4L11.33-22.4Q10.2-22.4 9.3-22.11 8.4-21.83 7.76-21.33 7.13-20.83 6.79-20.16 6.45-19.5 6.45-18.73L6.45-18.73Q6.45-17.75 7.01-17.1 7.58-16.45 8.5-15.98 9.43-15.5 10.6-15.14 11.78-14.78 13.01-14.36 14.25-13.95 15.43-13.45 16.6-12.95 17.53-12.2 18.45-11.45 19.01-10.36 19.58-9.28 19.58-7.75L19.58-7.75Q19.58-6 18.95-4.51 18.32-3.03 17.1-1.94 15.88-0.85 14.1-0.23 12.33 0.4 10 0.4L10 0.4Q7.35 0.4 5.2-0.46 3.05-1.33 1.55-2.68L1.55-2.68 2.6-4.38Q2.8-4.7 3.08-4.88 3.35-5.05 3.8-5.05L3.8-5.05Q4.25-5.05 4.75-4.7 5.25-4.35 5.96-3.93 6.68-3.5 7.69-3.15 8.7-2.8 10.23-2.8L10.23-2.8Q11.53-2.8 12.5-3.14 13.48-3.48 14.13-4.05 14.78-4.63 15.09-5.38 15.4-6.13 15.4-6.98L15.4-6.98Q15.4-8.03 14.84-8.71 14.28-9.4 13.35-9.89 12.43-10.38 11.24-10.74 10.05-11.1 8.81-11.5 7.58-11.9 6.39-12.41 5.2-12.93 4.28-13.7 3.35-14.48 2.79-15.61 2.23-16.75 2.23-18.38L2.23-18.38Q2.23-19.83 2.83-21.16 3.43-22.5 4.58-23.51 5.73-24.53 7.4-25.13 9.08-25.73 11.23-25.73L11.23-25.73Q13.73-25.73 15.71-24.94 17.7-24.15 19.15-22.78L19.15-22.78ZM35.37-25.73L35.37-25.73Q37.65-25.73 39.57-24.96 41.5-24.2 42.9-22.76 44.3-21.33 45.09-19.21 45.87-17.1 45.87-14.4L45.87-14.4Q45.87-13.35 45.65-13 45.42-12.65 44.8-12.65L44.8-12.65 27.95-12.65Q28-10.25 28.6-8.47 29.2-6.7 30.25-5.51 31.3-4.33 32.75-3.74 34.2-3.15 36-3.15L36-3.15Q37.67-3.15 38.89-3.54 40.1-3.93 40.97-4.38 41.85-4.83 42.44-5.21 43.02-5.6 43.45-5.6L43.45-5.6Q44-5.6 44.3-5.18L44.3-5.18 45.55-3.55Q44.72-2.55 43.57-1.81 42.42-1.07 41.11-0.6 39.8-0.13 38.4 0.11 37 0.35 35.62 0.35L35.62 0.35Q33 0.35 30.79-0.54 28.57-1.43 26.96-3.14 25.35-4.85 24.45-7.38 23.55-9.9 23.55-13.18L23.55-13.18Q23.55-15.83 24.36-18.13 25.17-20.43 26.7-22.11 28.22-23.8 30.42-24.76 32.62-25.73 35.37-25.73ZM35.47-22.45L35.47-22.45Q32.25-22.45 30.4-20.59 28.55-18.73 28.1-15.43L28.1-15.43 41.87-15.43Q41.87-16.98 41.45-18.26 41.02-19.55 40.2-20.49 39.37-21.43 38.19-21.94 37-22.45 35.47-22.45ZM50.4-13.1L50.4-16.88 62.75-16.88 62.75-13.1 50.4-13.1ZM73.34 8.58L68.89 8.58 68.89-25.33 71.54-25.33Q72.49-25.33 72.74-24.4L72.74-24.4 73.12-21.4Q74.74-23.38 76.83-24.58 78.92-25.78 81.64-25.78L81.64-25.78Q83.82-25.78 85.59-24.94 87.37-24.1 88.62-22.46 89.87-20.83 90.54-18.4 91.22-15.98 91.22-12.83L91.22-12.83Q91.22-10.03 90.47-7.61 89.72-5.2 88.32-3.44 86.92-1.68 84.88-0.66 82.84 0.35 80.29 0.35L80.29 0.35Q77.94 0.35 76.28-0.43 74.62-1.2 73.34-2.63L73.34-2.63 73.34 8.58ZM80.17-22.18L80.17-22.18Q77.99-22.18 76.36-21.18 74.72-20.18 73.34-18.35L73.34-18.35 73.34-6.1Q74.57-4.45 76.03-3.78 77.49-3.1 79.29-3.1L79.29-3.1Q82.82-3.1 84.72-5.63 86.62-8.15 86.62-12.83L86.62-12.83Q86.62-15.3 86.18-17.07 85.74-18.85 84.92-19.99 84.09-21.13 82.89-21.65 81.69-22.18 80.17-22.18ZM106.74-25.73L106.74-25.73Q109.52-25.73 111.75-24.8 113.99-23.88 115.55-22.18 117.12-20.48 117.95-18.06 118.79-15.65 118.79-12.68L118.79-12.68Q118.79-9.68 117.95-7.28 117.12-4.88 115.55-3.18 113.99-1.48 111.75-0.56 109.52 0.35 106.74 0.35L106.74 0.35Q103.97 0.35 101.73-0.56 99.49-1.48 97.92-3.18 96.34-4.88 95.49-7.28 94.64-9.68 94.64-12.68L94.64-12.68Q94.64-15.65 95.49-18.06 96.34-20.48 97.92-22.18 99.49-23.88 101.73-24.8 103.97-25.73 106.74-25.73ZM106.74-3.13L106.74-3.13Q110.49-3.13 112.34-5.64 114.19-8.15 114.19-12.65L114.19-12.65Q114.19-17.18 112.34-19.7 110.49-22.23 106.74-22.23L106.74-22.23Q104.84-22.23 103.44-21.58 102.04-20.93 101.1-19.7 100.17-18.48 99.7-16.69 99.24-14.9 99.24-12.65L99.24-12.65Q99.24-10.4 99.7-8.63 100.17-6.85 101.1-5.64 102.04-4.42 103.44-3.78 104.84-3.13 106.74-3.13Z" opacity="1" transform="matrix(1,0,0,1,0,0)" fill="#ffffff" class="undefined-text-0" data-fill-palette-color="primary" id="text-0"></path></svg></g></svg></g></svg></g></svg></g><g></g></svg></g></svg></g></svg></g></svg></g><defs></defs></svg><rect width="320" height="360" fill="none" stroke="none" visibility="hidden"></rect></g></svg></g></svg>