<svg xmlns="http://www.w3.org/2000/svg" version="1.1" xmlns:xlink="http://www.w3.org/1999/xlink" xmlns:svgjs="http://svgjs.dev/svgjs" width="1000" height="999" viewBox="0 0 1000 999"><g transform="matrix(1,0,0,1,-0.215743440233382,-0.21552769679306039)"><svg viewBox="0 0 343 343" data-background-color="#ffffff" preserveAspectRatio="xMidYMid meet" height="999" width="1000" xmlns="http://www.w3.org/2000/svg" xmlns:xlink="http://www.w3.org/1999/xlink"><g id="tight-bounds" transform="matrix(1,0,0,1,0.0740000000000407,0.07400000000001228)"><svg viewBox="0 0 342.85155851775386 342.85155851775386" height="342.85155851775386" width="342.85155851775386"><g><svg></svg></g><g><svg viewBox="0 0 342.85155851775386 342.85155851775386" height="342.85155851775386" width="342.85155851775386"><g><path d="M0 171.426c0-94.676 76.75-171.426 171.426-171.426 94.676 0 171.426 76.75 171.426 171.426 0 94.676-76.75 171.426-171.426 171.426-94.676 0-171.426-76.75-171.426-171.426zM171.426 337.207c91.559 0 165.782-74.223 165.781-165.781 0-91.559-74.223-165.782-165.781-165.782-91.559 0-165.782 74.223-165.782 165.782 0 91.559 74.223 165.782 165.782 165.781z" data-fill-palette-color="tertiary" fill="#c10000" stroke="transparent"></path><ellipse rx="164.56874808852186" ry="164.56874808852186" cx="171.42577925887693" cy="171.42577925887693" fill="#c10000" stroke="transparent" stroke-width="0" fill-opacity="1" data-fill-palette-color="tertiary"></ellipse></g><g transform="matrix(1,0,0,1,64.84655864529837,140.13202162838803)"><svg viewBox="0 0 213.1584412271571 62.58751526097779" height="62.58751526097779" width="213.1584412271571"><g><svg viewBox="0 0 213.1584412271571 62.58751526097779" height="62.58751526097779" width="213.1584412271571"><g><svg viewBox="0 0 213.1584412271571 62.58751526097779" height="62.58751526097779" width="213.1584412271571"><g><svg viewBox="0 0 213.1584412271571 62.58751526097779" height="62.58751526097779" width="213.1584412271571"><g id="textblocktransform"><svg viewBox="0 0 213.1584412271571 62.58751526097779" height="62.58751526097779" width="213.1584412271571" id="textblock"><g><svg viewBox="0 0 213.1584412271571 62.58751526097779" height="62.58751526097779" width="213.1584412271571"><g transform="matrix(1,0,0,1,0,0)"><svg width="213.1584412271571" viewBox="2.39 -26.900505617977526 126.21 37.060505617977526" height="62.58751526097779" data-palette-color="#ffffff"><path d="M12.87 0.51L12.87 0.51Q9.91 0.51 7.36-0.05 4.81-0.61 2.47-1.66L2.47-1.66 2.39-9.13 7.35-9.13 8.3-5.32Q9.13-4.91 10.12-4.66 11.11-4.42 12.38-4.42L12.38-4.42Q14.77-4.42 15.75-5.2 16.72-5.98 16.72-7.15L16.72-7.15Q16.72-8.25 15.69-9.09 14.65-9.94 11.55-10.57L11.55-10.57Q6.86-11.55 4.64-13.6 2.42-15.65 2.42-18.85L2.42-18.85Q2.42-21.04 3.53-22.85 4.64-24.66 6.92-25.76 9.2-26.86 12.77-26.86L12.77-26.86Q15.75-26.86 18.23-26.28 20.7-25.71 22.39-24.78L22.39-24.78 22.46-17.55 17.53-17.55 16.77-21.02Q16.11-21.51 15.22-21.75 14.33-22 13.21-22L13.21-22Q11.33-22 10.33-21.24 9.33-20.48 9.33-19.29L9.33-19.29Q9.33-18.6 9.68-18.02 10.03-17.43 11.08-16.92 12.13-16.41 14.14-15.94L14.14-15.94Q19.04-14.82 21.29-12.95 23.54-11.08 23.54-7.71L23.54-7.71Q23.54-4.03 20.86-1.76 18.19 0.51 12.87 0.51ZM39.43 0.51L39.43 0.51Q35.64 0.51 32.81-1.16 29.98-2.83 28.43-5.76 26.88-8.69 26.88-12.45L26.88-12.45 26.88-13.43Q26.88-17.36 28.34-20.4 29.81-23.44 32.48-25.18 35.15-26.93 38.79-26.9L38.79-26.9Q42.38-26.9 44.82-25.49 47.26-24.07 48.53-21.41 49.8-18.75 49.8-14.97L49.8-14.97 49.8-11.08 34.27-11.08 34.23-10.94Q34.37-9.2 35.09-7.85 35.81-6.49 37.13-5.73 38.45-4.96 40.33-4.96L40.33-4.96Q42.28-4.96 43.98-5.46 45.68-5.96 47.29-6.93L47.29-6.93 49.22-2.54Q47.58-1.22 45.1-0.35 42.62 0.51 39.43 0.51ZM34.25-15.92L34.32-15.8 43.14-15.8 43.14-16.43Q43.14-18.04 42.71-19.2 42.28-20.36 41.34-21 40.4-21.63 38.91-21.63L38.91-21.63Q37.5-21.63 36.52-20.89 35.54-20.14 35-18.85 34.45-17.55 34.25-15.92L34.25-15.92ZM68.53-12.45L54.76-12.45 54.76-17.94 68.53-17.94 68.53-12.45ZM86.81 10.16L72.82 10.16 72.82 5.86 76.26 5.13 76.26-21.39 72.45-22.12 72.45-26.42 82.81-26.42 83.15-23.34Q84.32-25.05 85.98-25.98 87.64-26.9 89.93-26.9L89.93-26.9Q93.13-26.9 95.4-25.16 97.67-23.41 98.88-20.29 100.09-17.16 100.09-12.99L100.09-12.99 100.09-12.48Q100.09-8.57 98.88-5.65 97.67-2.73 95.39-1.11 93.11 0.51 89.89 0.51L89.89 0.51Q87.76 0.51 86.14-0.26 84.51-1.03 83.37-2.51L83.37-2.51 83.37 5.13 86.81 5.86 86.81 10.16ZM87.76-4.96L87.76-4.96Q90.5-4.96 91.73-6.98 92.96-9.01 92.96-12.48L92.96-12.48 92.96-12.99Q92.96-15.5 92.4-17.37 91.84-19.24 90.68-20.3 89.52-21.36 87.71-21.36L87.71-21.36Q86.25-21.36 85.14-20.7 84.03-20.04 83.37-18.82L83.37-18.82 83.37-7.25Q84.03-6.13 85.14-5.54 86.25-4.96 87.76-4.96ZM116.18 0.51L116.18 0.51Q112.27 0.51 109.46-1.2 106.66-2.91 105.17-5.94 103.68-8.98 103.68-12.94L103.68-12.94 103.68-13.45Q103.68-17.38 105.17-20.42 106.66-23.46 109.45-25.18 112.25-26.9 116.13-26.9L116.13-26.9Q120.06-26.9 122.84-25.18 125.62-23.46 127.11-20.43 128.6-17.41 128.6-13.45L128.6-13.45 128.6-12.94Q128.6-8.98 127.11-5.94 125.62-2.91 122.84-1.2 120.06 0.51 116.18 0.51ZM116.18-4.96L116.18-4.96Q118.03-4.96 119.2-5.96 120.38-6.96 120.94-8.75 121.5-10.55 121.5-12.94L121.5-12.94 121.5-13.45Q121.5-15.8 120.94-17.59 120.38-19.38 119.19-20.4 118.01-21.41 116.13-21.41L116.13-21.41Q114.3-21.41 113.1-20.4 111.9-19.38 111.35-17.59 110.81-15.8 110.81-13.45L110.81-13.45 110.81-12.94Q110.81-10.55 111.35-8.74 111.9-6.93 113.1-5.94 114.3-4.96 116.18-4.96Z" opacity="1" transform="matrix(1,0,0,1,0,0)" fill="#ffffff" class="undefined-text-0" data-fill-palette-color="quaternary" id="text-0"></path></svg></g></svg></g></svg></g></svg></g><g></g></svg></g></svg></g></svg></g></svg></g><defs></defs></svg><rect width="342.85155851775386" height="342.85155851775386" fill="none" stroke="none" visibility="hidden"></rect></g></svg></g></svg>